<mxfile host="65bd71144e">
    <diagram name="TtalKkac AWS Infrastructure" id="ttalkkac-aws-main">
        <mxGraphModel dx="713" dy="455" grid="1" gridSize="10" guides="1" tooltips="1" connect="1" arrows="1" fold="1" page="1" pageScale="1" pageWidth="2200" pageHeight="1400" math="0" shadow="0">
            <root>
                <mxCell id="0"/>
                <mxCell id="1" parent="0"/>
                <mxCell id="title" value="TtalKkac AI 프로젝트 관리 시스템 - AWS 배포 아키텍처" style="text;html=1;strokeColor=none;fillColor=none;align=center;verticalAlign=middle;whiteSpace=wrap;rounded=0;fontSize=24;fontStyle=1;fontColor=#1e293b;" parent="1" vertex="1">
                    <mxGeometry x="400" y="20" width="1400" height="40" as="geometry"/>
                </mxCell>
                <mxCell id="subtitle" value="Multi-AZ High Availability Deployment with RunPod AI Integration" style="text;html=1;strokeColor=none;fillColor=none;align=center;verticalAlign=middle;whiteSpace=wrap;rounded=0;fontSize=16;fontColor=#64748b;" parent="1" vertex="1">
                    <mxGeometry x="600" y="65" width="1000" height="25" as="geometry"/>
                </mxCell>
                <mxCell id="internet" value="Internet" style="ellipse;whiteSpace=wrap;html=1;fillColor=#fef3c7;strokeColor=#f59e0b;strokeWidth=3;fontSize=16;fontStyle=1;" parent="1" vertex="1">
                    <mxGeometry x="100" y="120" width="120" height="60" as="geometry"/>
                </mxCell>
                <mxCell id="route53" value="Route 53 DNS" style="rounded=1;whiteSpace=wrap;html=1;fillColor=#f0f9ff;strokeColor=#0ea5e9;strokeWidth=2;fontSize=12;fontStyle=1;" parent="1" vertex="1">
                    <mxGeometry x="280" y="120" width="140" height="60" as="geometry"/>
                </mxCell>
                <mxCell id="cloudfront" value="CloudFront CDN&#10;글로벌 엣지 로케이션" style="rounded=1;whiteSpace=wrap;html=1;fillColor=#f0f9ff;strokeColor=#0ea5e9;strokeWidth=2;fontSize=12;fontStyle=1;" parent="1" vertex="1">
                    <mxGeometry x="480" y="120" width="160" height="60" as="geometry"/>
                </mxCell>
                <mxCell id="waf" value="AWS WAF&#10;DDoS Protection" style="rounded=1;whiteSpace=wrap;html=1;fillColor=#fef2f2;strokeColor=#ef4444;strokeWidth=2;fontSize=12;fontStyle=1;" parent="1" vertex="1">
                    <mxGeometry x="700" y="120" width="140" height="60" as="geometry"/>
                </mxCell>
                <mxCell id="aws-cloud" value="" style="rounded=1;whiteSpace=wrap;html=1;fillColor=#fff2cc;strokeColor=#d6b656;strokeWidth=3;" parent="1" vertex="1">
                    <mxGeometry x="50" y="220" width="1600" height="900" as="geometry"/>
                </mxCell>
                <mxCell id="aws-label" value="AWS Cloud (ap-northeast-2)" style="text;html=1;strokeColor=none;fillColor=none;align=left;verticalAlign=top;whiteSpace=wrap;rounded=0;fontSize=20;fontStyle=1;fontColor=#d6b656;" parent="1" vertex="1">
                    <mxGeometry x="70" y="230" width="300" height="30" as="geometry"/>
                </mxCell>
                <mxCell id="igw" value="Internet Gateway" style="rounded=1;whiteSpace=wrap;html=1;fillColor=#f0f9ff;strokeColor=#0ea5e9;strokeWidth=2;fontSize=12;fontStyle=1;" parent="1" vertex="1">
                    <mxGeometry x="550" y="270" width="200" height="40" as="geometry"/>
                </mxCell>
                <mxCell id="alb" value="Application Load Balancer&#10;(ALB)&#10;SSL/TLS 종료" style="rounded=1;whiteSpace=wrap;html=1;fillColor=#fef3c7;strokeColor=#f59e0b;strokeWidth=2;fontSize=12;fontStyle=1;" parent="1" vertex="1">
                    <mxGeometry x="520" y="340" width="260" height="60" as="geometry"/>
                </mxCell>
                <mxCell id="vpc" value="" style="rounded=1;whiteSpace=wrap;html=1;fillColor=#f3f4f6;strokeColor=#6b7280;strokeWidth=2;strokeDashArray=5 5;" parent="1" vertex="1">
                    <mxGeometry x="100" y="430" width="1500" height="650" as="geometry"/>
                </mxCell>
                <mxCell id="vpc-label" value="VPC (10.0.0.0/16)" style="text;html=1;strokeColor=none;fillColor=none;align=left;verticalAlign=top;whiteSpace=wrap;rounded=0;fontSize=14;fontStyle=1;fontColor=#6b7280;" parent="1" vertex="1">
                    <mxGeometry x="120" y="440" width="200" height="25" as="geometry"/>
                </mxCell>
                <mxCell id="az-2a" value="" style="rounded=1;whiteSpace=wrap;html=1;fillColor=#e0f2fe;strokeColor=#0369a1;strokeWidth=2;" parent="1" vertex="1">
                    <mxGeometry x="150" y="480" width="650" height="550" as="geometry"/>
                </mxCell>
                <mxCell id="az-2a-label" value="Availability Zone: ap-northeast-2a" style="text;html=1;strokeColor=none;fillColor=none;align=left;verticalAlign=top;whiteSpace=wrap;rounded=0;fontSize=14;fontStyle=1;fontColor=#0369a1;" parent="1" vertex="1">
                    <mxGeometry x="170" y="490" width="300" height="25" as="geometry"/>
                </mxCell>
                <mxCell id="az-2c" value="" style="rounded=1;whiteSpace=wrap;html=1;fillColor=#ecfdf5;strokeColor=#059669;strokeWidth=2;" parent="1" vertex="1">
                    <mxGeometry x="850" y="480" width="650" height="550" as="geometry"/>
                </mxCell>
                <mxCell id="az-2c-label" value="Availability Zone: ap-northeast-2c" style="text;html=1;strokeColor=none;fillColor=none;align=left;verticalAlign=top;whiteSpace=wrap;rounded=0;fontSize=14;fontStyle=1;fontColor=#059669;" parent="1" vertex="1">
                    <mxGeometry x="870" y="490" width="300" height="25" as="geometry"/>
                </mxCell>
                <mxCell id="public-subnet-2a" value="Public Subnet 2a&#10;10.0.1.0/24" style="rounded=1;whiteSpace=wrap;html=1;fillColor=#fef7cd;strokeColor=#f59e0b;strokeWidth=2;fontSize=11;" parent="1" vertex="1">
                    <mxGeometry x="180" y="530" width="180" height="50" as="geometry"/>
                </mxCell>
                <mxCell id="public-subnet-2c" value="Public Subnet 2c&#10;10.0.2.0/24" style="rounded=1;whiteSpace=wrap;html=1;fillColor=#fef7cd;strokeColor=#f59e0b;strokeWidth=2;fontSize=11;" parent="1" vertex="1">
                    <mxGeometry x="880" y="530" width="180" height="50" as="geometry"/>
                </mxCell>
                <mxCell id="nat-2a" value="NAT Gateway" style="rounded=1;whiteSpace=wrap;html=1;fillColor=#fed7d7;strokeColor=#e53e3e;strokeWidth=2;fontSize=11;" parent="1" vertex="1">
                    <mxGeometry x="400" y="530" width="120" height="50" as="geometry"/>
                </mxCell>
                <mxCell id="nat-2c" value="NAT Gateway" style="rounded=1;whiteSpace=wrap;html=1;fillColor=#fed7d7;strokeColor=#e53e3e;strokeWidth=2;fontSize=11;" parent="1" vertex="1">
                    <mxGeometry x="1100" y="530" width="120" height="50" as="geometry"/>
                </mxCell>
                <mxCell id="private-subnet-2a" value="Private Subnet 2a&#10;10.0.3.0/24" style="rounded=1;whiteSpace=wrap;html=1;fillColor=#f0fdf4;strokeColor=#16a34a;strokeWidth=2;fontSize=11;" parent="1" vertex="1">
                    <mxGeometry x="180" y="620" width="180" height="50" as="geometry"/>
                </mxCell>
                <mxCell id="private-subnet-2c" value="Private Subnet 2c&#10;10.0.4.0/24" style="rounded=1;whiteSpace=wrap;html=1;fillColor=#f0fdf4;strokeColor=#16a34a;strokeWidth=2;fontSize=11;" parent="1" vertex="1">
                    <mxGeometry x="880" y="620" width="180" height="50" as="geometry"/>
                </mxCell>
                <mxCell id="ecs-cluster-2a" value="ECS Fargate Cluster 2a" style="rounded=1;whiteSpace=wrap;html=1;fillColor=#ddd6fe;strokeColor=#7c3aed;strokeWidth=2;fontSize=12;fontStyle=1;" parent="1" vertex="1">
                    <mxGeometry x="180" y="700" width="340" height="40" as="geometry"/>
                </mxCell>
                <mxCell id="ecs-cluster-2c" value="ECS Fargate Cluster 2c" style="rounded=1;whiteSpace=wrap;html=1;fillColor=#ddd6fe;strokeColor=#7c3aed;strokeWidth=2;fontSize=12;fontStyle=1;" parent="1" vertex="1">
                    <mxGeometry x="880" y="700" width="340" height="40" as="geometry"/>
                </mxCell>
                <mxCell id="web-dashboard-2a" value="Web Dashboard&#10;React + TypeScript&#10;Port: 3001" style="rounded=1;whiteSpace=wrap;html=1;fillColor=#ffffff;strokeColor=#8b5cf6;strokeWidth=2;fontSize=10;" parent="1" vertex="1">
                    <mxGeometry x="200" y="760" width="120" height="60" as="geometry"/>
                </mxCell>
                <mxCell id="express-api-2a" value="Express API&#10;Node.js + TypeScript&#10;Port: 3500" style="rounded=1;whiteSpace=wrap;html=1;fillColor=#ffffff;strokeColor=#f97316;strokeWidth=2;fontSize=10;" parent="1" vertex="1">
                    <mxGeometry x="340" y="760" width="120" height="60" as="geometry"/>
                </mxCell>
                <mxCell id="slack-bot-2a" value="Slack Bot&#10;@slack/bolt&#10;Webhook Handler" style="rounded=1;whiteSpace=wrap;html=1;fillColor=#ffffff;strokeColor=#6366f1;strokeWidth=2;fontSize=10;" parent="1" vertex="1">
                    <mxGeometry x="480" y="760" width="120" height="60" as="geometry"/>
                </mxCell>
                <mxCell id="web-dashboard-2c" value="Web Dashboard&#10;React + TypeScript&#10;Port: 3001" style="rounded=1;whiteSpace=wrap;html=1;fillColor=#ffffff;strokeColor=#8b5cf6;strokeWidth=2;fontSize=10;" parent="1" vertex="1">
                    <mxGeometry x="900" y="760" width="120" height="60" as="geometry"/>
                </mxCell>
                <mxCell id="express-api-2c" value="Express API&#10;Node.js + TypeScript&#10;Port: 3500" style="rounded=1;whiteSpace=wrap;html=1;fillColor=#ffffff;strokeColor=#f97316;strokeWidth=2;fontSize=10;" parent="1" vertex="1">
                    <mxGeometry x="1040" y="760" width="120" height="60" as="geometry"/>
                </mxCell>
                <mxCell id="slack-bot-2c" value="Slack Bot&#10;@slack/bolt&#10;Webhook Handler" style="rounded=1;whiteSpace=wrap;html=1;fillColor=#ffffff;strokeColor=#6366f1;strokeWidth=2;fontSize=10;" parent="1" vertex="1">
                    <mxGeometry x="1180" y="760" width="120" height="60" as="geometry"/>
                </mxCell>
                <mxCell id="db-subnet-2a" value="DB Subnet 2a&#10;10.0.5.0/24" style="rounded=1;whiteSpace=wrap;html=1;fillColor=#eff6ff;strokeColor=#3b82f6;strokeWidth=2;fontSize=11;" parent="1" vertex="1">
                    <mxGeometry x="180" y="850" width="180" height="50" as="geometry"/>
                </mxCell>
                <mxCell id="db-subnet-2c" value="DB Subnet 2c&#10;10.0.6.0/24" style="rounded=1;whiteSpace=wrap;html=1;fillColor=#eff6ff;strokeColor=#3b82f6;strokeWidth=2;fontSize=11;" parent="1" vertex="1">
                    <mxGeometry x="880" y="850" width="180" height="50" as="geometry"/>
                </mxCell>
                <mxCell id="rds-primary" value="RDS PostgreSQL&#10;Primary&#10;db.t3.large&#10;Multi-AZ" style="rounded=1;whiteSpace=wrap;html=1;fillColor=#ffffff;strokeColor=#2563eb;strokeWidth=2;fontSize=10;fontStyle=1;" parent="1" vertex="1">
                    <mxGeometry x="200" y="920" width="120" height="70" as="geometry"/>
                </mxCell>
                <mxCell id="rds-standby" value="RDS PostgreSQL&#10;Standby&#10;Synchronous&#10;Replication" style="rounded=1;whiteSpace=wrap;html=1;fillColor=#ffffff;strokeColor=#2563eb;strokeWidth=2;fontSize=10;" parent="1" vertex="1">
                    <mxGeometry x="900" y="920" width="120" height="70" as="geometry"/>
                </mxCell>
                <mxCell id="redis-2a" value="ElastiCache&#10;Redis Cluster&#10;Cache Node" style="rounded=1;whiteSpace=wrap;html=1;fillColor=#ffffff;strokeColor=#dc2626;strokeWidth=2;fontSize=10;" parent="1" vertex="1">
                    <mxGeometry x="340" y="920" width="120" height="70" as="geometry"/>
                </mxCell>
                <mxCell id="redis-2c" value="ElastiCache&#10;Redis Cluster&#10;Cache Node" style="rounded=1;whiteSpace=wrap;html=1;fillColor=#ffffff;strokeColor=#dc2626;strokeWidth=2;fontSize=10;" parent="1" vertex="1">
                    <mxGeometry x="1040" y="920" width="120" height="70" as="geometry"/>
                </mxCell>
                <mxCell id="s3-bucket" value="S3 Bucket&#10;File Storage&#10;Versioning&#10;CORS" style="rounded=1;whiteSpace=wrap;html=1;fillColor=#fff7ed;strokeColor=#f97316;strokeWidth=2;fontSize=11;fontStyle=1;" parent="1" vertex="1">
                    <mxGeometry x="1550" y="530" width="120" height="70" as="geometry"/>
                </mxCell>
                <mxCell id="efs" value="EFS&#10;Shared FS&#10;Multi-AZ&#10;Mount Targets" style="rounded=1;whiteSpace=wrap;html=1;fillColor=#f0fdf4;strokeColor=#16a34a;strokeWidth=2;fontSize=11;" parent="1" vertex="1">
                    <mxGeometry x="1550" y="620" width="120" height="70" as="geometry"/>
                </mxCell>
                <mxCell id="cloudwatch" value="CloudWatch&#10;Metrics &amp; Logs&#10;Alarms&#10;Dashboards" style="rounded=1;whiteSpace=wrap;html=1;fillColor=#f0f9ff;strokeColor=#0ea5e9;strokeWidth=2;fontSize=10;" parent="1" vertex="1">
                    <mxGeometry x="1350" y="760" width="120" height="70" as="geometry"/>
                </mxCell>
                <mxCell id="security-groups" value="Security Groups&#10;ALB-SG (80,443)&#10;ECS-SG (3001,3500)&#10;RDS-SG (5432)" style="rounded=1;whiteSpace=wrap;html=1;fillColor=#fef2f2;strokeColor=#ef4444;strokeWidth=2;fontSize=10;" parent="1" vertex="1">
                    <mxGeometry x="1350" y="850" width="150" height="70" as="geometry"/>
                </mxCell>
                <mxCell id="auto-scaling" value="Auto Scaling&#10;CPU: 70%&#10;Min: 2, Max: 20&#10;Scale Policy" style="rounded=1;whiteSpace=wrap;html=1;fillColor=#f0f9ff;strokeColor=#0ea5e9;strokeWidth=2;fontSize=10;" parent="1" vertex="1">
                    <mxGeometry x="1520" y="850" width="120" height="70" as="geometry"/>
                </mxCell>
                <mxCell id="runpod-cloud" value="" style="rounded=1;whiteSpace=wrap;html=1;fillColor=#fef2f2;strokeColor=#ef4444;strokeWidth=3;" parent="1" vertex="1">
                    <mxGeometry x="1700" y="220" width="450" height="550" as="geometry"/>
                </mxCell>
                <mxCell id="runpod-label" value="RunPod GPU Cloud" style="text;html=1;strokeColor=none;fillColor=none;align=left;verticalAlign=top;whiteSpace=wrap;rounded=0;fontSize=20;fontStyle=1;fontColor=#ef4444;" parent="1" vertex="1">
                    <mxGeometry x="1720" y="230" width="250" height="30" as="geometry"/>
                </mxCell>
                <mxCell id="runpod-fastapi" value="FastAPI AI Server&#10;Python + FastAPI&#10;Port: 8000&#10;GPU Optimized" style="rounded=1;whiteSpace=wrap;html=1;fillColor=#ffffff;strokeColor=#dc2626;strokeWidth=2;fontSize=12;fontStyle=1;" parent="1" vertex="1">
                    <mxGeometry x="1750" y="280" width="150" height="70" as="geometry"/>
                </mxCell>
                <mxCell id="runpod-whisperx" value="WhisperX STT&#10;large-v3 Model&#10;Voice to Text&#10;Timestamp Support" style="rounded=1;whiteSpace=wrap;html=1;fillColor=#ffffff;strokeColor=#dc2626;strokeWidth=2;fontSize=11;" parent="1" vertex="1">
                    <mxGeometry x="1950" y="280" width="150" height="70" as="geometry"/>
                </mxCell>
                <mxCell id="runpod-qwen3" value="Qwen3-32B-AWQ&#10;2-Stage Pipeline&#10;Meeting → PRD&#10;Task Decomposition" style="rounded=1;whiteSpace=wrap;html=1;fillColor=#ffffff;strokeColor=#dc2626;strokeWidth=2;fontSize=11;" parent="1" vertex="1">
                    <mxGeometry x="1750" y="370" width="150" height="70" as="geometry"/>
                </mxCell>
                <mxCell id="runpod-gpu" value="NVIDIA A100 GPU&#10;40GB VRAM&#10;Tensor Cores&#10;CUDA Support" style="rounded=1;whiteSpace=wrap;html=1;fillColor=#ffffff;strokeColor=#dc2626;strokeWidth=2;fontSize=11;" parent="1" vertex="1">
                    <mxGeometry x="1950" y="370" width="150" height="70" as="geometry"/>
                </mxCell>
                <mxCell id="runpod-features" value="RunPod Features&#10;• Auto-scaling GPU Pods&#10;• Spot Instance Support&#10;• Container Registry&#10;• Global Load Balancing&#10;• Cost Optimization" style="rounded=1;whiteSpace=wrap;html=1;fillColor=#f8fafc;strokeColor=#64748b;strokeWidth=2;fontSize=10;" parent="1" vertex="1">
                    <mxGeometry x="1750" y="460" width="350" height="80" as="geometry"/>
                </mxCell>
                <mxCell id="runpod-performance" value="AI Performance Metrics&#10;• Processing: 15-30s avg&#10;• Accuracy: 95%+&#10;• Concurrent: 100+ requests&#10;• GPU Utilization: 80%+&#10;• 99.9% Uptime SLA" style="rounded=1;whiteSpace=wrap;html=1;fillColor=#f0f9ff;strokeColor=#0ea5e9;strokeWidth=2;fontSize=10;" parent="1" vertex="1">
                    <mxGeometry x="1750" y="560" width="350" height="80" as="geometry"/>
                </mxCell>
                <mxCell id="external-apis" value="External APIs&#10;• Slack API (OAuth 2.0)&#10;• Notion API (Integration Token)&#10;• JIRA API (Atlassian OAuth)&#10;• GitHub API (Repository Access)" style="rounded=1;whiteSpace=wrap;html=1;fillColor=#f0fdf4;strokeColor=#22c55e;strokeWidth=2;fontSize=11;" parent="1" vertex="1">
                    <mxGeometry x="1700" y="900" width="300" height="80" as="geometry"/>
                </mxCell>
                <mxCell id="cicd-pipeline" value="CI/CD Pipeline&#10;• GitHub Actions&#10;• Docker Image Build&#10;• ECR Registry Push&#10;• ECS Service Update&#10;• Blue-Green Deployment" style="rounded=1;whiteSpace=wrap;html=1;fillColor=#f3e8ff;strokeColor=#8b5cf6;strokeWidth=2;fontSize=10;" parent="1" vertex="1">
                    <mxGeometry x="100" y="1150" width="220" height="80" as="geometry"/>
                </mxCell>
                <mxCell id="performance-metrics" value="시스템 성능 지표&#10;• 응답시간: &lt; 200ms (95th)&#10;• 가용성: 99.9%&#10;• RTO: &lt; 1시간&#10;• RPO: &lt; 15분&#10;• Auto Scaling: 2-20 tasks&#10;• 동시 사용자: 10,000+&#10;• AI 처리: 15-30초 평균" style="rounded=1;whiteSpace=wrap;html=1;fillColor=#f0f9ff;strokeColor=#0ea5e9;strokeWidth=2;fontSize=10;" parent="1" vertex="1">
                    <mxGeometry x="350" y="1150" width="200" height="80" as="geometry"/>
                </mxCell>
                <mxCell id="cost-optimization" value="비용 최적화&#10;• Spot Instances&#10;• Reserved Instances&#10;• S3 Intelligent Tiering&#10;• CloudWatch Cost Anomaly&#10;• Auto Scaling&#10;• Resource Tagging&#10;• 예상 월 비용: $2,000-5,000" style="rounded=1;whiteSpace=wrap;html=1;fillColor=#fef2f2;strokeColor=#ef4444;strokeWidth=2;fontSize=10;" parent="1" vertex="1">
                    <mxGeometry x="580" y="1150" width="200" height="80" as="geometry"/>
                </mxCell>
                <mxCell id="security-features" value="보안 기능&#10;• VPC 네트워크 격리&#10;• Security Groups&#10;• NACLs&#10;• IAM 역할 기반 액세스&#10;• 전송/저장 데이터 암호화&#10;• WAF + Shield&#10;• GuardDuty 위협 탐지" style="rounded=1;whiteSpace=wrap;html=1;fillColor=#f0fdf4;strokeColor=#22c55e;strokeWidth=2;fontSize=10;" parent="1" vertex="1">
                    <mxGeometry x="810" y="1150" width="200" height="80" as="geometry"/>
                </mxCell>
                <mxCell id="backup-dr" value="백업 및 재해복구&#10;• Multi-AZ 배포&#10;• 자동 백업 (7일)&#10;• Point-in-time 복구&#10;• Cross-region 복제&#10;• 장애조치 자동화&#10;• 정기적 DR 테스트&#10;• 백업 검증" style="rounded=1;whiteSpace=wrap;html=1;fillColor=#f3e8ff;strokeColor=#8b5cf6;strokeWidth=2;fontSize=10;" parent="1" vertex="1">
                    <mxGeometry x="1040" y="1150" width="200" height="80" as="geometry"/>
                </mxCell>
                <mxCell id="network-topology" value="네트워크 토폴로지&#10;• VPC CIDR: 10.0.0.0/16&#10;• Public Subnets: 10.0.1-2.0/24&#10;• Private Subnets: 10.0.3-4.0/24&#10;• DB Subnets: 10.0.5-6.0/24&#10;• Internet Gateway&#10;• NAT Gateways (Multi-AZ)&#10;• Route Tables 구성" style="rounded=1;whiteSpace=wrap;html=1;fillColor=#fffbeb;strokeColor=#f59e0b;strokeWidth=2;fontSize=10;" parent="1" vertex="1">
                    <mxGeometry x="1270" y="1150" width="200" height="80" as="geometry"/>
                </mxCell>
                <mxCell id="system-summary" value="시스템 아키텍처 요약&#10;━━━━━━━━━━━━━━━━━━━━━━━━━━━━━━━━━━━━━━━━━━━━━━━━━━━━━━━━━━━━━━━━━━━━━━━━━━━━━━━━━━━━━━━━━━━━━━━━━━━━━━━━━━━━━━━━━━━━&#10;• Multi-AZ 고가용성: ap-northeast-2a/2c 이중화 배포로 99.9% 가용성 보장 • ECS Fargate: 컨테이너 오케스트레이션 및 자동 스케일링 (2-20 tasks)&#10;• Database: RDS PostgreSQL Multi-AZ + ElastiCache Redis 클러스터 • Storage: S3 버킷 + EFS 공유 파일 시스템&#10;• AI Processing: RunPod GPU Cloud (NVIDIA A100) + WhisperX + Qwen3-32B-AWQ • External APIs: Slack, Notion, JIRA OAuth 2.0 연동&#10;• Security: WAF, Security Groups, VPC 격리, IAM 역할, 데이터 암호화 • Monitoring: CloudWatch 메트릭, 로그, 알람, X-Ray 분산 추적&#10;• CI/CD: GitHub Actions + ECR + ECS 자동 배포 파이프라인 • Cost: Spot 인스턴스, Reserved Instances, 리소스 태깅으로 최적화" style="rounded=1;whiteSpace=wrap;html=1;fillColor=#f1f5f9;strokeColor=#475569;strokeWidth=2;fontSize=11;align=left;verticalAlign=middle;" parent="1" vertex="1">
                    <mxGeometry x="1500" y="1150" width="650" height="80" as="geometry"/>
                </mxCell>
                <mxCell id="flow1" value="" style="endArrow=classic;html=1;rounded=0;strokeWidth=3;strokeColor=#f59e0b;exitX=1;exitY=0.5;exitDx=0;exitDy=0;entryX=0;entryY=0.5;entryDx=0;entryDy=0;" parent="1" source="internet" target="route53" edge="1">
                    <mxGeometry width="50" height="50" relative="1" as="geometry">
                        <mxPoint x="220" y="150" as="sourcePoint"/>
                        <mxPoint x="280" y="150" as="targetPoint"/>
                    </mxGeometry>
                </mxCell>
                <mxCell id="flow2" value="" style="endArrow=classic;html=1;rounded=0;strokeWidth=3;strokeColor=#f59e0b;exitX=1;exitY=0.5;exitDx=0;exitDy=0;entryX=0;entryY=0.5;entryDx=0;entryDy=0;" parent="1" source="route53" target="cloudfront" edge="1">
                    <mxGeometry width="50" height="50" relative="1" as="geometry">
                        <mxPoint x="420" y="150" as="sourcePoint"/>
                        <mxPoint x="480" y="150" as="targetPoint"/>
                    </mxGeometry>
                </mxCell>
                <mxCell id="flow3" value="" style="endArrow=classic;html=1;rounded=0;strokeWidth=3;strokeColor=#f59e0b;exitX=0.5;exitY=1;exitDx=0;exitDy=0;entryX=0.5;entryY=0;entryDx=0;entryDy=0;" parent="1" source="cloudfront" target="igw" edge="1">
                    <mxGeometry width="50" height="50" relative="1" as="geometry">
                        <mxPoint x="560" y="180" as="sourcePoint"/>
                        <mxPoint x="650" y="270" as="targetPoint"/>
                    </mxGeometry>
                </mxCell>
                <mxCell id="flow4" value="" style="endArrow=classic;html=1;rounded=0;strokeWidth=3;strokeColor=#f59e0b;exitX=0.5;exitY=1;exitDx=0;exitDy=0;entryX=0.5;entryY=0;entryDx=0;entryDy=0;" parent="1" source="igw" target="alb" edge="1">
                    <mxGeometry width="50" height="50" relative="1" as="geometry">
                        <mxPoint x="650" y="310" as="sourcePoint"/>
                        <mxPoint x="650" y="340" as="targetPoint"/>
                    </mxGeometry>
                </mxCell>
                <mxCell id="flow5" value="" style="endArrow=classic;html=1;rounded=0;strokeWidth=2;strokeColor=#7c3aed;exitX=0.25;exitY=1;exitDx=0;exitDy=0;entryX=0.5;entryY=0;entryDx=0;entryDy=0;" parent="1" source="alb" target="ecs-cluster-2a" edge="1">
                    <mxGeometry width="50" height="50" relative="1" as="geometry">
                        <mxPoint x="585" y="400" as="sourcePoint"/>
                        <mxPoint x="350" y="700" as="targetPoint"/>
                    </mxGeometry>
                </mxCell>
                <mxCell id="flow6" value="" style="endArrow=classic;html=1;rounded=0;strokeWidth=2;strokeColor=#7c3aed;exitX=0.75;exitY=1;exitDx=0;exitDy=0;entryX=0.5;entryY=0;entryDx=0;entryDy=0;" parent="1" source="alb" target="ecs-cluster-2c" edge="1">
                    <mxGeometry width="50" height="50" relative="1" as="geometry">
                        <mxPoint x="715" y="400" as="sourcePoint"/>
                        <mxPoint x="1050" y="700" as="targetPoint"/>
                    </mxGeometry>
                </mxCell>
                <mxCell id="flow7" value="" style="endArrow=classic;html=1;rounded=0;strokeWidth=2;strokeColor=#2563eb;dashed=1;exitX=0.5;exitY=1;exitDx=0;exitDy=0;entryX=0.5;entryY=0;entryDx=0;entryDy=0;" parent="1" source="express-api-2a" target="rds-primary" edge="1">
                    <mxGeometry width="50" height="50" relative="1" as="geometry">
                        <mxPoint x="400" y="820" as="sourcePoint"/>
                        <mxPoint x="260" y="920" as="targetPoint"/>
                    </mxGeometry>
                </mxCell>
                <mxCell id="flow8" value="" style="endArrow=classic;html=1;rounded=0;strokeWidth=2;strokeColor=#dc2626;dashed=1;exitX=0.5;exitY=1;exitDx=0;exitDy=0;entryX=0.5;entryY=0;entryDx=0;entryDy=0;" parent="1" source="express-api-2a" target="redis-2a" edge="1">
                    <mxGeometry width="50" height="50" relative="1" as="geometry">
                        <mxPoint x="400" y="820" as="sourcePoint"/>
                        <mxPoint x="400" y="920" as="targetPoint"/>
                    </mxGeometry>
                </mxCell>
                <mxCell id="flow9" value="" style="endArrow=classic;html=1;rounded=0;strokeWidth=3;strokeColor=#ef4444;exitX=1;exitY=0.5;exitDx=0;exitDy=0;entryX=0;entryY=0.5;entryDx=0;entryDy=0;" parent="1" source="express-api-2a" target="runpod-fastapi" edge="1">
                    <mxGeometry width="50" height="50" relative="1" as="geometry">
                        <mxPoint x="460" y="790" as="sourcePoint"/>
                        <mxPoint x="1750" y="315" as="targetPoint"/>
                    </mxGeometry>
                </mxCell>
                <mxCell id="flow10" value="" style="endArrow=classic;html=1;rounded=0;strokeWidth=2;strokeColor=#dc2626;exitX=1;exitY=0.5;exitDx=0;exitDy=0;entryX=0;entryY=0.5;entryDx=0;entryDy=0;" parent="1" source="runpod-fastapi" target="runpod-whisperx" edge="1">
                    <mxGeometry width="50" height="50" relative="1" as="geometry">
                        <mxPoint x="1900" y="315" as="sourcePoint"/>
                        <mxPoint x="1950" y="315" as="targetPoint"/>
                    </mxGeometry>
                </mxCell>
                <mxCell id="flow11" value="" style="endArrow=classic;html=1;rounded=0;strokeWidth=2;strokeColor=#dc2626;exitX=0.5;exitY=1;exitDx=0;exitDy=0;entryX=0.5;entryY=0;entryDx=0;entryDy=0;" parent="1" source="runpod-whisperx" target="runpod-qwen3" edge="1">
                    <mxGeometry width="50" height="50" relative="1" as="geometry">
                        <mxPoint x="2025" y="350" as="sourcePoint"/>
                        <mxPoint x="1825" y="370" as="targetPoint"/>
                    </mxGeometry>
                </mxCell>
                <mxCell id="db-replication" value="Multi-AZ&#10;Replication" style="endArrow=classic;startArrow=classic;html=1;rounded=0;strokeWidth=2;strokeColor=#2563eb;dashed=1;exitX=1;exitY=0.5;exitDx=0;exitDy=0;entryX=0;entryY=0.5;entryDx=0;entryDy=0;" parent="1" source="rds-primary" target="rds-standby" edge="1">
                    <mxGeometry width="50" height="50" relative="1" as="geometry">
                        <mxPoint x="320" y="955" as="sourcePoint"/>
                        <mxPoint x="900" y="955" as="targetPoint"/>
                        <mxLabel x="100" y="-10" as="offset"/>
                    </mxGeometry>
                </mxCell>
            </root>
        </mxGraphModel>
    </diagram>
</mxfile>